<svg version="1" xmlns="http://www.w3.org/2000/svg" width="562pt" height="270pt" viewBox="0 0 562.000000 270.000000"><path d="M104 25.1c0 .6-1.4 3-3.1 5.4-1.9 2.7-3 5.1-2.7 6.3.5 1.7.2 1.8-2.2.9-8.2-3.1-13.6 7.2-6 11.3 1.1.6 2 2 2 3 0 2.1.8 2.4 3.4 1.4 1-.4 1.6-1.8 1.6-4.1 0-4.4 2.1-4 3.6.7 1.4 4.2.3 8.8-2.7 11.2-4.4 3.7-12.2 1-9.9-3.3 2.2-3.9-2.7-7.8-5.8-4.7-1.5 1.5-1.5 4.3.1 6.9 1 1.7.9 2.2-.7 3.5-6.2 4.5-14.6-1.5-13.4-9.7.4-3.1 2.8-3.7 2.8-.7 0 4.4 4.4 6.4 7 3.3.9-1 .9-1.5.1-1.5-1.6 0-1.4-2.5.4-4 2.1-1.7 1.9-6.3-.3-8.3-2.5-2.3-7.4-2.1-10.6.4-2.6 2-2.6 2-2.6 0 0-2.4-.8-3-8.2-5.7-3.7-1.4-5.8-1.7-5.7-1 0 .6 4 11.7 8.8 24.6l8.8 23.5 36.4.3 36.4.2 6.3-17.2c3.5-9.5 7.7-20.8 9.3-25.2 2.5-6.7 2.7-7.7 1.2-7.1-1 .4-3.8 1.5-6.3 2.3-5.7 1.9-7 2.9-7 5.5 0 2 0 2-2.3-.1-3-2.8-8-2.9-10.7-.2-2.4 2.4-2.5 4.8-.4 7.8.8 1.2 1.3 3.1.9 4.2-.5 1.5 0 2.1 1.9 2.6 3.4.8 4.6-.2 4.6-3.7 0-4.6 2.4-3 2.8 1.7.4 5.4-3.1 9.4-8.2 9.4-4.6 0-8.4-3.7-5.6-5.5.6-.3 1-1.9 1-3.5 0-2.3-.5-3.1-2.4-3.6-3.7-.9-4.8.3-4.4 4.9.3 3.7 0 4.2-2.3 5.1-3.9 1.3-7.7 0-9.4-3.4-1.9-3.7-1.9-8 .1-10.8 1.9-2.8 3.3-2.1 2.6 1.4-.3 1.6.1 2.9.9 3.5 1.9 1.2 3.9 1.1 3.9-.2 0-.6 1.4-2.7 3-4.6 3.5-4 3.8-6.5.9-9.4-1.7-1.7-2.9-2-6-1.6-3.3.4-3.9.2-3.9-1.3 0-1-1.5-4-3.2-6.8-3.2-5-4.8-6.3-4.8-4.1zM236 103.2c0 6.9-.3 13.3-.6 14.2-.4 1.1 0 1.6 1.2 1.6 1.8 0 1.9-.8 1.6-10.2l-.3-10.3 10.3 10.2c5.7 5.7 10.6 10.3 11 10.3.4 0 .8-6.1 1-13.5.3-12.3.1-13.5-1.5-13.5s-1.7.9-1.1 10c.4 5.5.4 10 0 10s-5.4-4.8-11.1-10.8l-10.4-10.7-.1 12.7zM347 91.9l-6.5.6v26.5h7.3c3.9 0 7.2-.4 7.2-.9 0-.6-1.6-.7-3.5-.4-5 .8-6.5-.9-6.5-7.3v-5.4h3.5c2.2 0 3.8.6 4.4 1.7.9 1.6 1 1.5 1.1-.8 0-2.4-.3-2.6-4.2-2.5l-4.3.1-.3-5.3-.3-5.4 4.7.4c3.1.2 4.9-.1 5.1-1 .3-.6.1-1.1-.4-1-.4.1-3.7.4-7.3.7zM401.2 92.6c-1.6 1.1-2.2 2.5-2.2 5.4 0 3.3.6 4.4 4.3 7.7 5.4 4.7 6.7 7.1 5.6 10.1-1.3 3.4-7.8 2.8-9.6-.8l-1.3-2.5v3.2c0 2.7.5 3.4 2.5 3.9 3.9 1 9.3-.4 11-2.9 2.9-4.2 1.9-7.6-4-13.4-5.8-5.7-6.8-8.5-3.6-10.3 2.8-1.4 3.8-1.3 6.1 1l2 2v-2.5c0-2.3-.4-2.5-4.3-2.5-2.3 0-5.3.7-6.5 1.6zM450 93.4c0 1.6.3 1.7 1.2.8.7-.7 2.9-1.2 5.1-1.2h3.8l-.3 13-.3 13h5v-25.5l2.7-.3c1.5-.2 3.6.2 4.8.8 1.7.9 2 .8 2-.7 0-1.6-1.2-1.8-12-1.8-11.2 0-12 .1-12 1.9zM492 91.7l-6.5.4v26.9h7.3c5.7 0 7.2-.3 7.2-1.5s-.5-1.3-2.4-.4c-1.4.7-3.6.9-5 .5-2.4-.6-2.6-1-2.6-6.7v-6.1l4.2.4c2.4.2 4.3-.2 4.5-.8.3-.8-1-1-4.2-.7l-4.5.6v-11.3h3.5c2.2 0 3.8.6 4.4 1.7.9 1.5 1 1.4 1.1-1 0-1.5-.1-2.6-.2-2.5-.2.1-3.2.3-6.8.5zM508 93.4c0 1.6.3 1.7 1.2.8.7-.7 2.9-1.2 5.1-1.2h3.8l-.3 13-.3 13h5v-25.5l2.7-.3c1.5-.2 3.6.2 4.8.8 1.7.9 2 .8 2-.7 0-1.6-1.2-1.8-12-1.8-11.2 0-12 .1-12 1.9zM42 134.3c0 46.3.2 48 6.1 60.6 11.9 25.6 41.2 40.3 68.9 34.7 24.4-5 42.8-22.1 49.7-46.1 1.4-5.1 1.7-12.4 2.1-48.8l.4-42.7h-127.2v42.3zm124-2.1c0 21-.5 40.1-1.1 43.7-2.2 13.7-7.7 24.5-17 33.9-18.9 18.8-45.9 23.2-69.8 11.5-10-5-21.2-15.9-26.3-25.8-6.6-12.7-6.8-14.6-6.8-59.9v-40.6h121v37.2zM74.8 104.6c-.2 2.3-.7 2.9-2.5 2.7-1.7-.2-2.3.2-2.3 1.7 0 2.3-1.5 2.5-5 .5-4.1-2.4-4.9-1.9-3.9 2.2 1.2 5.3 1.2 5.5-1.3 5.1-1.7-.2-2.4.3-2.6 1.9-.3 1.8-1 2.3-3.4 2.3h-3.1l4.4 3.5c2.4 1.9 4.8 3.5 5.2 3.5.5 0 5.2-3.4 10.6-7.6l9.9-7.7-2-4.6c-2.7-6.1-3.6-6.9-4-3.5zM133.5 105.5c-.9 2.2-2.1 4.8-2.6 5.7-.7 1.4 1 3.2 9.3 9.6l10.1 8 4.7-3.7 4.6-3.6-3.3-.3c-2.7-.3-3.3-.7-3.3-2.7 0-1.8-.4-2.2-2-1.8-2.3.6-2.5-.5-1.1-5.5 1.1-3.6.2-4-3.9-1.7-3.5 2-5 1.8-5-.6 0-1.5-.5-1.9-2.2-1.7-1.8.2-2.4-.3-2.9-2.7l-.6-3-1.8 4zM71.3 122.3c-8.5 6.6-9.1 7.3-7.7 8.9 1.2 1.3 2.2 1.5 4 .8 2.5-1 6.7 0 7.9 1.9.9 1.6 1.9 1.4 4.8-.9 2.3-1.8 2.4-2.3 1.4-5-.8-2.2-.8-3.8.1-6.3 1.2-3.2.8-6.8-.7-6.6-.3 0-4.7 3.2-9.8 7.2zM128.5 117c-.3 1-.1 2.8.4 3.9 1.5 2.7 1.4 6.4-.1 8-1.1 1-.7 1.7 1.5 3.7 2.9 2.5 4.7 3.1 4.7 1.5 0-1.7 5.5-3.2 8.2-2.2 2.4.9 4.8-.1 4.8-2 0-.7-17.5-14.9-18.4-14.9-.3 0-.7.9-1.1 2zM81.2 134.2c-4.2 3.2-5.1 5.1-3.2 6.3 1.5.9 10-5.7 9.7-7.4-.4-2.5-2.2-2.2-6.5 1.1zM123.7 131.7c-1.5 1.4-.5 3.1 3.8 6.2s6.5 3.4 6.5.7c0-.7-2-2.7-4.4-4.4-4.8-3.5-4.9-3.5-5.9-2.5zM84.1 139.4l-2.3 2.4 8.8 11.2 8.8 11.3 2.3-2.9c1.3-1.6 2.1-3.4 1.9-4.1-.9-2.3-15.1-20.2-16.2-20.2-.6-.1-2.1 1-3.3 2.3zM106.1 158.2c-17.1 22-17.3 22.3-12.5 25.4 1.7 1.1 3.2-.5 18.7-20.4l16.9-21.6-2.7-2.3c-1.4-1.3-2.9-2.3-3.3-2.3-.4.1-8.1 9.6-17.1 21.2zM109.1 169.8c-1.1 1.7-2.1 3.3-2.1 3.6 0 .3 1.9 3 4.2 6l4.2 5.4 2.8-1.9c1.5-1.1 2.8-2.5 2.8-3.1 0-.8-3.1-5-9.1-12.1-.3-.5-1.6.5-2.8 2.1zM84.5 182.1c-.8 1.2-1.1.9 3.9 4.8 2.1 1.7 4.5 3.1 5.2 3.1 2.6 0 1.3-3.5-2.3-6.3-3.9-2.9-5.8-3.4-6.8-1.6zM119.7 184.1c-3.9 3.2-4.8 5.9-1.9 5.9 2.4-.1 9.6-6.5 8.8-7.9-1.1-1.8-2.9-1.3-6.9 2zM80 191.7l-4.4 5.6 2.8 2.4c2.6 2.2 3 2.3 4.6.8 1-.9 3.1-3.4 4.6-5.6 2.2-3.3 2.5-4.1 1.4-5.4-3.2-3.9-4.5-3.6-9 2.2zM123.8 188.5c-1.6 1.3-2.8 2.6-2.8 2.9 0 .3 1.9 3 4.2 6l4.2 5.4 2.7-2.1c1.6-1.2 2.8-2.6 2.8-3 .1-.7-2.5-4.2-7.8-10.9-.4-.4-1.8.4-3.3 1.7zM69.8 200.5c-1 2.3-.8 2.8 2.3 5.5 4.3 3.7 6.6 4.5 8.4 3 2.5-2.1 1.7-4.4-2.7-7.8-5-3.9-6.5-4-8-.7zM132.4 202.4c-3.3 2.9-3.7 3.7-2.8 5.3 1.8 2.9 4.7 2.6 8.8-.9 3.1-2.7 3.7-3.8 3.2-5.6-1.1-3.2-4.6-2.8-9.2 1.2zM199.2 103c.3 10.4.5 11.1 3.1 13.7 2.3 2.4 3.6 2.8 8.1 2.8 9.1 0 11.6-4.2 11.6-19.3 0-7.1-.2-8.2-1.7-8.2-1.6 0-1.8 1.2-1.8 10.9 0 12.6-1.2 15.1-7.2 15.1-6.1 0-7.3-2.4-7.3-15v-11h-5.2l.4 11zM275.5 105.5v13.5h5v-27h-5v13.5zM296.7 105.5c2.4 7.4 4.8 13.5 5.3 13.5.4 0 2.5-4.4 4.6-9.8l3.8-9.7 2.8 6.5c1.6 3.6 3.7 8.3 4.7 10.5l1.8 3.9 4.3-12.9c2.4-7.2 4.5-13.6 4.8-14.3.2-.6-.3-1.2-1.2-1.2-.9 0-1.6.5-1.6 1.1 0 2.9-5.3 18-6 17.3-.5-.5-2.4-4.7-4.3-9.4-2-4.7-3.9-8.5-4.2-8.5-.4 0-2.3 4.5-4.3 10l-3.6 9.9-1.4-3.4c-.8-1.9-2.2-6.5-3.1-10.2-1.5-6.3-1.8-6.8-4.3-6.8h-2.7l4.6 13.5zM368.5 105.5c0 13.5 0 13.5 2.3 13.5s2.3-.2 1.7-5.5c-.7-5.4-.7-5.5 1.8-5.5 1.8 0 3.5 1.4 6.6 5.5 3.6 4.7 4.6 5.5 7.4 5.5 2.8-.1 3-.2 1.5-1.3-.9-.7-3.5-3.5-5.7-6.2l-4-4.8 2.5-2.9c2.8-3.4 3.1-6.4.8-9.6-1.3-1.9-2.4-2.2-8.2-2.2h-6.7v13.5zm10.5-10.5c4.1 4.1 1.7 11.4-3.5 10.8-2.8-.3-3-.6-3.3-5.2-.2-2.7-.1-5.5.2-6.2.8-2 4.3-1.7 6.6.6zM422.2 94.2c7.1 10.9 7.8 12.5 7.8 18.7 0 6 0 6.1 2.8 6.1 2.6 0 2.7-.1 2.4-5-.5-6.7 0-8.5 4.7-15.8l4.1-6.2h-2.7c-1.4 0-2.4.3-2 .6.8.8-5.2 12.6-6.1 12-.4-.2-2-3.1-3.7-6.5-2.6-5.2-3.4-6-5.9-6.1-2.7 0-2.8.1-1.4 2.2zM438.4 134.1c-1.8 2-1.8 2 1.1 1.3 3.7-.8 3.9-1 3-2.3-.9-1.6-2-1.3-4.1 1zM220.6 151.7c-2.6 6.5-5.4 12.8-6.2 14-1.4 2.2-1.3 2.3 1.1 2.3 1.9 0 2.5-.5 2.5-2 0-1.2.7-3.5 1.6-5.1 1.4-2.7 1.9-3 5.7-2.7 4 .3 4.2.5 5.7 5 1.4 4.5 1.7 4.8 5 4.8 2.1 0 3-.3 2.3-.8-.7-.5-3.5-6.4-6.3-13.2-2.8-6.8-5.4-12.8-5.9-13.3s-2.9 4.4-5.5 11zm6.2.2c1.6 5.2 1.7 5.1-2.4 5.1-3 0-3.5-.3-2.9-1.8.4-.9 1.2-2.9 1.7-4.5 1.4-3.7 2.3-3.4 3.6 1.2zM254 141.1c-4 1.6-6.9 5-8.1 9.1-3.1 11.8 6.3 20.3 20.1 18.2l5.5-.9.3-6.3c.3-6.2.3-6.2-2.5-6.2s-2.8 0-2.5 6l.4 6h-3.9c-8.2 0-14-7-13-15.8.5-5 2.7-7.7 7.3-9.2 3.8-1.3 9.2 0 11.9 2.7 1.3 1.3 1.5 1.2 1.5-1 0-1.7-.7-2.7-2.2-3.1-3.5-.9-12-.6-14.8.5zM313.3 140.7l-6.2.4-.3 13.4-.3 13.5h7.2c6.4 0 7.2-.2 7.8-2.1.4-1.1.4-2.3.1-2.6-.3-.4-.6.1-.6 1 0 1.1-1.2 1.8-3.7 2.3-4.7.9-6.5-1.3-6.1-7.6.3-4.1.5-4.5 3.1-4.8 1.6-.2 3.5.2 4.3.9 1.1.9 1.4.8 1.4-.8 0-1.7-.7-2-4.2-1.9l-4.3.1v-5c0-4.9 0-5 3.3-5.3 1.8-.2 4 .2 4.8.9 1.1.9 1.4.8 1.4-1 0-1.1-.3-2-.7-1.9-.5.1-3.6.3-7 .5zM391.1 141.7c-1.8.9-4.2 3.1-5.2 4.7-2.6 4.2-2.5 11.9.1 16.1 2.2 3.5 8.1 6.5 12.7 6.5 4.2 0 10.7-3.7 12.8-7.2 2.5-4.2 2.6-12.3.1-16-3.6-5.5-13.6-7.5-20.5-4.1zm11.7 1.3c5.6 3.4 7.7 11.5 4.8 18.5-4.1 9.8-17.4 5.8-19.1-5.8-.9-5.5 1.6-11.5 5.5-13.4 3.4-1.7 5-1.6 8.8.7zM425.9 142.6c0 1.6-.4 8-.7 14.2-.7 10.8-.6 11.2 1.3 11.2s2-.5 1.4-9.7c-.3-5.4-.5-10-.3-10.1.1-.2 4.7 4.3 10.2 10 5.5 5.6 10.2 10.1 10.5 9.8.2-.3.7-6.5 1-13.8.6-12 .5-13.2-1.1-13.2-1.5 0-1.7 1.1-1.4 10.2l.2 10.3-10.5-10.9c-9.8-10.2-10.5-10.7-10.6-8zM466.2 141.6c-1.6 1.1-2.2 2.5-2.2 5.2 0 3.2.8 4.5 5 8.7 5 4.9 6.1 8 3.8 10.3-2 2-6.5 1.4-8.2-1l-1.6-2.2v2.6c0 5.2 9.7 5.2 13.7-.1 2.8-3.6 1.6-7.3-4.2-12.6-5.9-5.5-6.9-8.7-3.5-10.5 2.7-1.5 5.9-.4 7 2.3.8 1.9.9 1.8.9-1.1.1-3.1 0-3.2-4.2-3.2-2.3 0-5.3.7-6.5 1.6zM199.5 156.9c0 15.6-.1 16-2.5 18.7-2.1 2.2-2.1 2.5-.5 1.6 1.1-.5 3.1-2.2 4.5-3.7 2.4-2.5 2.5-3.4 3-17.6l.5-14.9h-5v15.9zM286 154.5v13.5h5.5l-.3-13.5-.3-13.5h-4.9v13.5zM334.5 154.5v13.5h7.8c7.1 0 7.7-.2 7.7-2.1 0-1.9-.1-1.9-1.6-.5-1.8 1.9-6.5 2.1-8.2.4-.8-.8-1.2-5.2-1.2-13 0-11.6 0-11.8-2.2-11.8-2.3 0-2.3.2-2.3 13.5zM360.8 154.5l-.3 13.5h7.6c6.1 0 7.8-.3 8.3-1.6 1.1-2.9.6-3.9-1-1.6-.9 1.3-2.5 2.2-4.2 2.2-5.3 0-5.7-.9-5.7-14 0-11.7-.1-12-2.2-12s-2.2.4-2.5 13.5zM490.5 154.5v13.5h2.5c2.6 0 2.6-.1 2.2-6.5-.2-3.6-.1-6.5.2-6.5.4 0 3.4 2.9 6.7 6.5 5.4 5.7 6.6 6.5 9.8 6.5h3.6l-3-1.9c-3.1-1.8-13.5-12.8-13.5-14.2 0-.4 2.5-3 5.6-5.8 5.1-4.6 5.3-5.1 3-5.1-1.5 0-2.7.7-3 1.8-.3 1-2.7 3.8-5.2 6.2l-4.6 4.5.4-6.3c.3-6 .2-6.2-2.2-6.2h-2.5v13.5zM523.5 154.5v13.5h5l-.3-13.5c-.3-13.1-.4-13.5-2.5-13.5-2.2 0-2.2.3-2.2 13.5zM195.7 189.7c.6.2 3.3 6.7 5.9 14.5 3.2 9.6 4.9 13.6 5.5 12.7.5-.8 2.3-5 4-9.4 1.7-4.4 3.4-8.4 3.8-8.8.4-.4 2.5 3.6 4.6 8.8 2.2 5.3 4.2 9.8 4.5 10 .3.2 2.5-5.4 4.9-12.6 2.3-7.1 4.8-13.5 5.5-14.2 1.1-1.1.7-1.3-2-1.3-2.2 0-3 .4-2.5 1 .9 1.1-3.7 18.6-4.8 18.6-.3 0-2.3-4.3-4.5-9.5-2.1-5.2-4.2-9.3-4.6-9-.4.2-2.2 4.5-4 9.5-1.8 4.9-3.6 9-4 9-1.3 0-6.1-18.3-4.9-19 .5-.4-1.2-.7-3.8-.7-2.6 0-4.3.2-3.6.4zM264.7 190.5c1.2.9 1.4 3.6 1.1 13.8l-.3 12.7h2.5c2.5 0 2.5-.1 2.2-7.2l-.4-7.3 3.9 4.5c7.6 9 8.9 10 13 9.9 3 0 3.4-.2 1.8-.8-2.3-1-14.5-13.5-14.5-14.9 0-.5 2.4-3.2 5.3-6 5.1-4.7 5.2-5.1 3-5.5-1.3-.2-2.3.1-2.3.7 0 .7-2.2 3.7-5 6.7l-4.9 5.4-.1-5.7c0-4.2.4-5.9 1.6-6.6 1-.6-.1-.8-3.4-.8-3.7.1-4.5.4-3.5 1.1zM300.3 189.8c1.6.3 1.8 1.5 1.5 13.8l-.3 13.4h2.6c2.5 0 2.6-.1 2.1-5.5-.4-5.3-.4-5.5 2-5.5 1.9 0 3.5 1.4 6.4 5.2 3.3 4.5 4.5 5.3 7.4 5.5 1.9.1 2.9 0 2.2-.3-.7-.3-3.2-3-5.7-6.1l-4.5-5.4 2.2-2.9c1.2-1.6 2.1-4.3 2.1-6 0-5-2-6.1-11.4-6.4-4.6-.1-7.6-.1-6.6.2zm12.1 2.7c4.1 4.1 2.3 10.8-3.2 11.3l-3.2.3v-6.5c0-6.3.1-6.6 2.4-6.6 1.4 0 3.1.7 4 1.5zM343.1 191.1c-4.7 12.3-9.5 23.6-10.3 24.6-.8 1-.4 1.3 1.6 1.3 1.5 0 2.5-.4 2.1-.9-.3-.5.2-2.8 1.1-5 1.5-3.8 1.9-4.1 5.4-4.1 4.2 0 5.2.8 7.1 6.2 1.1 3.2 1.8 3.8 4.2 3.8 2.2 0 2.7-.3 2-1.3-.6-.6-3.2-6.6-5.8-13.2-2.7-6.6-5.2-12.4-5.6-12.9-.5-.5-1.2.1-1.8 1.5zm3.3 12.6c.7 2.1.4 2.3-2.8 2.3-4.2 0-4.1 0-1.9-5.9l1.7-4.5 1.2 3c.6 1.6 1.5 3.9 1.8 5.1zM368.3 189.8c1.7.3 1.8 1.5 1.5 13.8l-.3 13.4h2.6c2.7 0 2.7 0 2.1-6.5-.2-3.6-.1-6.5.4-6.5s3.5 2.9 6.7 6.5c5.2 5.8 6.2 6.5 9.5 6.5h3.7l-3.5-2.4c-1.9-1.3-5.7-5-8.5-8.2l-4.9-5.7 5.9-5.4c3.2-2.9 5.3-5.3 4.7-5.3-.6 0-1.7-.3-2.6-.6-1.1-.4-1.6 0-1.6 1.2 0 1.8-7.6 10.4-9.2 10.4-1.3 0-.9-8.8.5-10.2 1.1-1.1.5-1.3-3.7-1.3-2.8-.1-4.3.1-3.3.3zM409.4 190c-5.5 2.2-9.3 10.5-7.9 16.9 2.1 9.9 15.1 14.1 23.8 7.9 8.3-5.9 7.2-20.6-1.8-24.4-3.7-1.5-10.8-1.8-14.1-.4zm10.1 1.6c1.9.9 4 3 4.9 4.9 3 6.4 1.3 17.2-2.9 18.9-3 1.1-8 .6-10.4-1-3-2.2-5.1-7.3-5.1-12.6.1-5.1 1.8-8.6 5.1-10.4 3.1-1.7 4.4-1.7 8.4.2zM440.3 190.2c.9.4 3.4 6.5 5.7 13.6 2.4 7 4.6 13.1 5 13.5.4.5 2.4-3.7 4.5-9.2 2.1-5.5 4.1-9.8 4.5-9.6.3.2 2.4 4.7 4.5 9.9 2.1 5.3 4.1 9.3 4.4 9 .3-.2 2.4-6.2 4.8-13.2 2.3-7 4.9-13.2 5.7-13.7 1-.8.3-1.1-2.8-1.1-2.2-.1-3.5.1-2.8.3.6.3 1.2 1.1 1.2 2 0 2-4.1 15.6-5 16.6-.4.5-2.5-3.2-4.5-8.3-2.1-5-4.2-9.3-4.6-9.5-.4-.3-2.1 3.4-3.8 8.2-1.8 4.7-3.5 9.2-4 10-.9 1.6-6.6-15.9-5.8-18 .3-.8-.9-1.2-4-1.3-3-.1-4 .2-3 .8zM491.3 190.2c.8.5 1.2 5 1.2 13.8v13h5l-.3-13.2c-.2-7.7.1-13.4.6-13.7.6-.3-.9-.6-3.3-.6s-3.8.3-3.2.7zM513.3 189.8c2.5.5 3 4 2.5 16.3l-.4 10.9h7.3c5.8 0 7.3-.3 7.3-1.5s-.5-1.3-2.7-.4c-1.5.5-3.8.8-5 .4-2.1-.5-2.3-1.1-2.3-6.6v-6.1l4 .4c2.5.2 4.1-.1 4.4-.9.4-.9-.6-1.1-3.9-.6l-4.5.6v-11.3h3.5c2.2 0 3.8.6 4.4 1.7.9 1.6 1 1.5 1.1-.7 0-2.5-.1-2.5-8.7-2.5-4.8 0-7.9.1-7 .3z"/></svg>