<svg version="1" xmlns="http://www.w3.org/2000/svg" width="512pt" height="288pt" viewBox="0 0 512.000000 288.000000"><path d="M147.5 42.2c-.3.7-.4 32.1-.3 69.8l.3 68.5 35.8.3 35.7.2.1-20.2c.1-18.6.2-19.9 1.4-15.5.7 2.6 1.8 5.4 2.4 6.1.7.8 1.2 5.1 1.2 9.9v8.5l3.6-1.1c1.9-.6 6.1-3.4 9.2-6.2 7-6.2 10.9-9 13.9-9.9l2.2-.7v29.1h105v-140h-105v8.1c0 8-.1 8.1-2.2 7.5-4.6-1.3-23.4-2.8-27.5-2.2l-4.3.6v-14h-35.5c-27.5 0-35.7.3-36 1.2zm33.7 53c.3 47 .4 50.3 2.1 50.6 1.6.3 1.7-2.6 1.7-50.3v-50.6l15.3.3 15.2.3.3 5.2c.3 4.6 0 5.4-2.2 6.8-2.7 1.8-5.6 7.1-5.6 10.3 0 1.1 1.2 3.5 2.6 5.2l2.7 3.1-2.2 4.8c-1.3 2.6-2.4 6.3-2.5 8.2-.2 1.8-.4 3.7-.5 4.1 0 .4-1.4 1.4-3.1 2.3-3.5 1.8-10.2 10.3-9.8 12.4.2.8 1.7 2.2 3.3 3.1 2 1.1 2.9 2.4 2.7 3.6-.3 2-.3 7.9.1 15.8l.2 4.9 5 2c10.8 4.1 9.6 1.3 9.3 21.4l-.3 17.8-32.2.3-32.3.2v-132h30l.2 50.2zm173.8 15.8v66h-30v-50.6c0-47.6-.1-50.5-1.7-50.2-1.7.3-1.8 3.6-2.1 50.6l-.2 50.2h-31v-50.6c0-47.6-.1-50.5-1.7-50.2-1.7.3-1.8 3.6-2.1 50.6l-.2 50.2h-30v-13c0-11.1.2-13 1.6-13 1 0 1.3-.6 1-1.8-1.2-3.6-2.2-14.3-1.5-14.8.4-.2 1.1 0 1.4.6.4.7 3.3.9 7.7.6 9.4-.6 12.3-3.1 12.4-10.9 0-2.8.6-6.5 1.2-8 1.6-3.8 1.5-8.9-.2-13.4-.8-2.1-1.6-6.5-1.9-9.9-.3-3.3-1.4-8.2-2.5-11-1.1-2.7-2.7-7-3.6-9.6-2-5.6-6.9-10.7-11.6-12.2l-3.5-1.1-.3-7.3-.3-7.2h99.1v66zM138.2 206.2c.3 6.7.5 7.3 3.1 8.8 2.4 1.3 3 1.3 5.5 0 2.5-1.5 2.7-2.1 3-8.8.2-4.3-.1-7.2-.7-7.2s-1.1 3.3-1.3 7.2c-.3 6.8-.5 7.3-2.6 7.6-4 .6-5.2-1.4-5.2-8.4 0-3.8-.4-6.4-1-6.4-.7 0-1 2.7-.8 7.2zM214.8 203.1c-2.6 1.5-2.2 3.4 1.3 6.2 4 3.1 3.5 6.3-.9 5.3-2.2-.5-2.4-.4-.9.4 3.3 2.1 7.4-.9 6.1-4.4-.3-.7-1.6-1.8-3-2.5-3.3-1.5-2.8-4.7.6-4.3 2 .2 2.2 0 1-.8-1.8-1.2-2.1-1.2-4.2.1zM324.2 203.6c-1.9 1.3-2.3 2.3-2 6.2.3 4.1.7 4.8 3.1 5.6 2 .7 3 .6 4-.4s.9-1.2-.7-.6c-2.6.9-5.6-2-5.6-5.4 0-3.3 3-6.3 5.6-5.4 1.6.5 1.6.4.4-.5-2-1.4-2.2-1.4-4.8.5zM154 208.9c0 7.4 1.8 8.2 2.2 1l.3-5.1 2.6 4.8c3.8 7 4.9 6.8 4.7-.8l-.1-6.3-.6 5.5-.6 5.5-2.6-5c-1.5-2.8-3.4-5.1-4.3-5.3-1.3-.3-1.6.7-1.6 5.7zM168 209c0 3.3.4 6 1 6s1-2.7 1-6-.4-6-1-6-1 2.7-1 6zM173.6 206c.7 4.6 2.4 9 3.5 9 .5 0 1.5-2.1 2.2-4.7 1.5-5 1.8-4.9 3.6.9 1.5 4.5 2.5 4.8 3.9 1 1.6-4.1 2.6-10 1.3-8.2-.5.8-1.3 3.2-1.6 5.2-.9 4.9-2.3 4.9-3.1-.1-.3-2.1-1-4.4-1.5-5.2-1.2-1.9-2.5.1-3.3 5.2-.7 4.2-2.6 5.4-2.6 1.6-.1-1.2-.7-3.6-1.5-5.2l-1.5-3 .6 3.5zM192.2 209.2c.3 6.3.3 6.3 3.6 6.6 1.8.2 3.2-.1 3.2-.7s-1.4-1.1-3.1-1.1c-2.6 0-3-.3-2.7-2.3.2-1.6.9-2.1 2.6-1.9 1.2.2 2.2-.2 2.2-.7 0-.6-1.1-1.1-2.5-1.1-1.8 0-2.5-.5-2.5-1.9 0-1.5.8-2.1 3.3-2.4 3.1-.4 3.1-.4-.6-.5l-3.8-.2.3 6.2zM203.1 209.2c.1 3.5.4 5 .6 3.5.6-3.6 3.3-3.3 5.1.6.8 1.6 1.6 2.6 1.9 2.3.3-.2-.1-1.8-.9-3.3-1-2-1.1-3.4-.5-4.5 1.6-2.5.1-4.8-3.3-4.8h-3l.1 6.2zm5.4-3.2c0 .8-1 1.6-2.2 1.8-1.8.3-2.3-.2-2.3-1.8s.5-2.1 2.3-1.8c1.2.2 2.2 1 2.2 1.8zM223.1 203.5c0 .5.6 2.1 1.4 3.5.8 1.4 1.5 3.8 1.6 5.5.1 2.9.1 2.9.8.5.5-1.4 1.6-4 2.5-5.8 1-1.9 1.5-3.6 1.2-3.9-.3-.3-1.1.6-1.7 2.1-1.2 2.5-2.9 3.6-2.9 1.8 0-.5-.7-1.7-1.5-2.8-.8-1-1.4-1.5-1.4-.9zM234.3 203.7c1.3.4 1.7 1.5 1.7 5.9 0 3 .5 5.4 1 5.4.6 0 1-2.4 1-5.4 0-4.9.2-5.5 2.3-5.9 1.2-.2 0-.4-2.8-.4-2.7-.1-4.2.1-3.2.4zM244.2 209.2c.3 6.3.3 6.3 3.6 6.6 1.8.2 3.2-.1 3.2-.7s-1.1-1.1-2.5-1.1c-2 0-2.5-.5-2.5-2.4s.4-2.3 1.9-1.9c1 .3 2.2 0 2.5-.6.5-.7-.3-1.1-1.8-1.1-3.8 0-3.6-3.7.2-4.3 2.1-.3 1.9-.4-1.1-.6l-3.8-.1.3 6.2zM254.7 203.7c1.9.4 2.3 1.2 2.6 6.1l.3 5.7.2-5.7c.2-5 .5-5.7 2.5-6.1 1.2-.2 0-.4-2.8-.4-2.7 0-4 .2-2.8.4zM270 209c0 7.4 1.8 8 2.2.7l.3-5.2 2.1 5.3c1.1 2.9 2.4 5.4 2.9 5.5.4.1 1.7-2.3 2.9-5.3l2.1-5.5.3 5.2c.4 7.3 2.2 6.7 2.2-.7 0-7.8-2.1-8.1-5.3-.8l-2.3 5.2-2.1-5.2c-3.1-7.4-5.3-7-5.3.8zM288 207.5c0 3.2.6 5.1 2 6.5 2.3 2.3 3.3 2.4 6.1 1 1.6-.9 1.9-2 1.7-6.8l-.2-5.7-.3 5.2c-.3 4-.9 5.5-2.4 6.4-3.2 1.7-4.9-.5-4.9-6.2 0-2.7-.4-4.9-1-4.9-.5 0-1 2-1 4.5zM303.8 203.7c1.7.2 3.2.7 3.2.9 0 .3-1.4 2.5-3.1 5-1.6 2.4-2.7 4.9-2.4 5.4.8 1.3 7.5 1.3 7.5.1 0-.6-1.3-1.1-3-1.3l-3-.3 3-4.5c1.6-2.5 3-4.8 3-5.3 0-.4-1.9-.6-4.2-.5-3.7.1-3.9.2-1 .5zM311.7 205c.3 1.1.9 2.3 1.4 2.6.5.3.9 2.1.9 4s.5 3.4 1 3.4c.6 0 1-1.1 1-2.5 0-1.5.7-4 1.6-5.6.8-1.7 1.3-3.3 1-3.6-.3-.3-1.2 1-2 2.8l-1.4 3.4-1.3-3.3c-1.5-3.5-3-4.4-2.2-1.2zM335.7 203.7l3.3.4-3.5 5.1c-1.9 2.8-3.2 5.5-2.9 6 .7 1.1 7.2 1 7.9-.2.4-.6-.8-1-2.9-1h-3.6l3.5-5.5 3.6-5.5-4.3.2c-3.7.1-3.8.2-1.1.5zM344.2 209.2l.2 6.3.3-5.4.4-5.5 2.9 5.1c4.3 7.5 5 7.5 4.8-.4l-.1-6.8-.6 5.5-.6 5.5-2.6-5c-3.8-7.1-4.9-6.9-4.7.7zM357.5 206c.8 1.6 1.5 4.3 1.5 6 0 1.6.5 3 1 3 .6 0 1-.9 1-2 0-1.2.9-3.9 1.9-6 1.1-2.2 1.6-4 1.2-4-.4 0-1.3 1.2-2 2.6-.9 2.1-1.4 2.4-2.6 1.4-.8-.7-1.5-1.9-1.5-2.6 0-.8-.5-1.4-1-1.4-.6 0-.4 1.3.5 3zM159 240.5c0 3.7.4 6.5 1 6.5s1-1.1 1-2.5c0-1.8.5-2.5 2-2.5 1.1 0 2-.5 2-1 0-.6-.9-1-2-1-1.5 0-2-.7-2-2.4 0-1.9.6-2.6 2.8-2.9 2.2-.3 2-.4-1-.6l-3.8-.1v6.5zM169 240.6c0 3.8.4 6.3.9 5.9.6-.3.8-1.4.6-2.5-.6-3 2.9-2.6 4.3.5.6 1.4 1.6 2.5 2.1 2.5s.3-1.3-.5-2.9c-1.2-2.4-1.3-3.4-.3-5 1.7-2.6-.3-5.1-4.2-5.1h-2.9v6.6zm5.5-3.1c0 1.1-.8 2.1-1.7 2.3-1.4.3-1.8-.3-1.8-2.3 0-2 .4-2.6 1.8-2.3.9.2 1.7 1.2 1.7 2.3zM181 238c1.1 2.1 2 5.2 2.1 6.7l.1 2.8.7-3c.4-1.7 1.5-4.5 2.5-6.3 1-1.9 1.5-3.6 1.2-3.9-.2-.3-1.2 1-2.2 2.8l-1.7 3.4-1.5-3.3c-.9-1.7-1.9-3.2-2.4-3.2s.1 1.8 1.2 4zM191 240.5v6.5h3.3c4.4 0 5.7-1.5 5.7-6.7 0-4.6-1.7-6.3-6.4-6.3-2.5 0-2.6.2-2.6 6.5zm6.2-3.8c2 1.8 2.4 6.3.6 8.1-.7.7-2.2 1.2-3.5 1.2-2.1 0-2.3-.4-2.3-5.5 0-6 1.5-7.1 5.2-3.8zM204 240.5v6.5l3.8-.2c3.6-.1 3.6-.1.5-.5-2.7-.4-3.3-.9-3.3-2.8 0-1.8.6-2.5 2.8-2.8l2.7-.4-2.8-.2c-2.3-.1-2.8-.5-2.5-2.3.2-1.6 1.2-2.5 3.3-2.9 2.9-.6 2.9-.7-.7-.8l-3.8-.1v6.5zM214.1 240.7c.1 3.8.4 5.6.6 4 .3-1.8 1-2.7 2.3-2.7 1.1 0 2.6 1.2 3.4 2.7.8 1.6 1.5 2.2 1.6 1.5 0-.7-.5-2.2-1-3.2-.7-1.4-.7-2.5.2-3.9 1.6-2.6-.5-5.1-4.3-5.1h-2.9l.1 6.7zm5.7-2.9c.3 1.8-.1 2.2-2.2 2.2-1.9 0-2.6-.5-2.6-1.8 0-3.9 4.3-4.3 4.8-.4zM226 238c1.1 2.1 2 5.1 2 6.5 0 1.4.5 2.5 1 2.5.6 0 1-1.4 1-3 0-1.7.7-4.5 1.6-6.1.8-1.7 1.3-3.3 1-3.6-.2-.3-1.2.9-2.1 2.6-1.9 3.8-2.3 3.9-3.6.1-.6-1.7-1.5-3-2-3s0 1.8 1.1 4zM236.3 240.5c0 3.8.2 5.5.4 3.7.5-4 1.4-4 3.6-.2 1 1.6 2.3 3 2.8 3 1.2 0-.4-3.2-2.6-5-1.4-1.1-1.3-1.6 1-4.6 1.4-1.9 2.2-3.4 1.7-3.4-.4 0-1.9 1.5-3.3 3.2l-2.4 3.3-.6-3.5c-.4-2.4-.6-1.3-.6 3.5zM249 237.2c-.6 1.8-1.8 4.8-2.6 6.5-.7 1.8-1 3.3-.5 3.3s1.1-.7 1.5-1.5c.8-2.1 6.3-1.9 7.5.2.5 1 1.1 1.6 1.4 1.3.6-.7-4.3-13-5.3-13-.4 0-1.3 1.5-2 3.2zm4 4c0 1.1-.7 1.8-2 1.8-2.1 0-2.4-1-1.3-4.9.6-2.3.7-2.3 2-.6.7 1.1 1.3 2.7 1.3 3.7zM265.4 236.6c-1.4 2-1.5 3.3-.8 6.2.8 3.3 1.3 3.7 4.3 4 1.8.2 3.9-.2 4.5-.8.8-.9.4-1-1.7-.5-3.6.9-5.7-.9-5.7-5 0-3.8 2.1-6 5-5.2 1.1.3 1.8.1 1.4-.4-1.1-1.9-5.4-.9-7 1.7zM276.2 240.5c0 4.5.3 5.9.7 4 .5-2.5 1.2-3.1 3.8-3.3 2.9-.3 3.2-.1 3.6 3 .2 1.8.4.1.4-3.7 0-3.9-.2-5.5-.4-3.7-.4 3.1-.7 3.3-3.6 3-2.6-.2-3.3-.8-3.8-3.3-.4-1.9-.7-.5-.7 4zM290.7 235.8c-2 2.2-2.2 8.3-.5 10 .7.7 2.7 1.2 4.5 1.2 3.7 0 5.3-2.1 5.3-6.9 0-5.5-5.8-8.2-9.3-4.3zm6 0c1.8 1.1 2.6 5.8 1.3 8.1-2.1 4-8 2.1-8-2.7 0-4.9 3.3-7.6 6.7-5.4zM303.7 234.6c-1.1 1.1-.8 12.4.3 12.4.6 0 1-1.1 1-2.4 0-1.8.6-2.6 2.1-2.8 3-.4 4.7-3.3 3.3-5.6-1.1-1.8-5.4-2.8-6.7-1.6zm5.3 1.9c1 1.2 1 1.8 0 3-2.1 2.5-4 1.8-4-1.5s1.9-4 4-1.5zM314 240.5c0 3.7.4 6.5 1 6.5s1-2.8 1-6.5-.4-6.5-1-6.5-1 2.8-1 6.5zM319.7 234.7c-1.1 1-.8 12.3.2 12.3.6 0 1.1-2.4 1.3-5.3l.3-5.2 2.8 5.2c1.5 2.9 3.2 5.3 3.7 5.3.6 0 .9-2.9.8-6.8l-.1-6.7-.6 5.5-.6 5.5-2.8-5.3c-2.6-5-3.6-5.9-5-4.5zM334.8 238.7l-2.3 6.8c-.6 1.9-.6 1.9.8.2 1.8-2.2 7.7-2.3 7.7-.2 0 .8.5 1.5 1.1 1.5.7 0 .8-.7.4-1.8-.4-.9-1.5-3.7-2.4-6.1-.9-2.5-2.1-4.6-2.7-4.8-.6-.2-1.8 1.8-2.6 4.4zm4.6 2c.6 2 .4 2.3-1.9 2.3s-2.5-.3-1.9-2.8c1.3-5.1 2.1-5 3.8.5z"/></svg>