<svg version="1" xmlns="http://www.w3.org/2000/svg" width="770pt" height="400pt" viewBox="0 0 770.000000 400.000000"><path d="M42.9 84.2c0 .2-.1 3.6-.2 7.5-.2 5.3.2 7.4 1.1 7.8.8.3 1.7.3 2.2 0 1.9-1.2 2.1-.7 14.7 46.5 3.7 13.8 3.1 13.1 12.1 12.8l7.7-.3 5.5-21.7c3-11.9 5.8-21.9 6.2-22.3.3-.3 3 9.4 6 21.7l5.4 22.3h16.700000000000003l7.7-28.7c4.3-15.7 8.1-29.1 8.5-29.7.3-.7 1.2-1.1 1.8-1 3.4.4 3.7-.2 3.7-7.6v-7.5h-30.1l.3 7.7c.3 7.2.5 7.8 2.5 7.8 1.2 0 2.4.3 2.8.6.6.7-5.4 27.8-6.5 29.1-.3.4-2.8-9.5-5.6-22l-5.1-22.7-7.9-.3-8-.3-4.8 20.8c-2.7 11.4-5.2 21.7-5.6 22.7-.5 1.3-1.8-2.6-4-12-1.7-7.6-3.3-14.3-3.4-14.9 0-.5 1.1-.8 2.7-.7l2.7.3v-16.1h-14.5c-8 0-14.5.1-14.6.2zM596 91.4v7.5l3.3.3 3.2.3v44l-3.8.3-3.8.3.3 7.2.3 7.2h23l.2-11.8c.1-6.5.3-12.1.6-12.3.2-.2 4.8 5.2 10.2 12.1l9.8 12.5h15.7v-15h-3.9c-3.7 0-4.3-.4-9.5-7.2-3.1-3.9-5.6-7.6-5.6-8.2 0-.6 2.6-3.6 5.7-6.8 4.3-4.3 6.5-5.8 8.5-5.8h2.8v-15h-29v14h3c1.7 0 3 .4 3 .8s-2.5 3.2-5.5 6.2c-4.3 4.3-5.5 5-5.5 3.5 0-1.1-.2-10.8-.3-21.5l-.2-19.5-11.2-.3-11.3-.3v7.5zM163.2 101c-7.9 1.7-15.5 8-19.1 16-2.8 6.1-2.9 19.7-.2 25.6 4.8 10.5 13.9 16.4 25.4 16.4 6.8 0 13.5-2.3 15.4-5.2.5-.9.9-.3 1.3 1.7l.5 3h22l.3-7.3.3-7.2h-6.1v-28h6v-15.1l-10.7.3-10.8.3-.3 2.7c-.4 3.2-1.4 3.5-3.3 1.2-3.3-4-12.8-6-20.7-4.4zm18.9 18.9c3.6 3.5 3.9 4.3 3.9 9.3 0 9.2-5.1 14.8-13.5 14.8s-13.5-5.6-13.5-14.8c0-5 .3-5.8 3.9-9.3 3.6-3.6 4.3-3.9 9.6-3.9s6 .3 9.6 3.9zM272.5 101.2c-6.8 2.4-11.5 9.1-11.5 16.3 0 9.8 5.1 15.1 17.6 18.6 7.1 2 10.4 4.2 10.4 6.9 0 2.6-2.1 4-6.2 4-3.3 0-4.2-.5-5.6-3-1.6-2.9-1.9-3-9-3h-7.3l.3 8.7.3 8.8 5.8.3c4.5.2 5.7 0 5.7-1.2 0-1.3.7-1.2 4.3.4 12.1 5.5 27.5-1.5 29.2-13.4 1.7-10.9-3.1-16.7-17.7-21.2-6.9-2.2-9.3-3.4-10.1-5.1-2.1-4.6 5-8.4 8.7-4.7.9.8 1.6 2 1.6 2.5s3.4.9 7.5.9h7.5v-16h-5.4c-3 0-5.7.4-6.1.9-.3.6-1.9.4-4-.5-3.9-1.6-11.6-1.7-16-.2zM396.1 101c-13.9 2.9-23 15.7-21.9 30.9.6 8.4 3.4 14.8 8.8 19.9 5.8 5.7 11.1 7.5 20.3 7 6.2-.3 8.1-.8 11.3-3.1l3.9-2.7.3 3 .3 3h21.9v-7.4c0-7.4 0-7.5-2.7-7.8l-2.8-.3-.3-13.8-.3-13.7h6.1v-15h-21v3c0 3-1.3 4-2.5 2-2.4-3.8-13.9-6.5-21.4-5zm16.5 16.9c6 3.7 8 12.1 4.5 18.9-5 9.7-19.8 9.7-24.4-.1-3.3-6.8-1.1-15.2 4.7-18.8 4-2.5 11.2-2.5 15.2 0zM555 100.7c-9.1 3.3-13 8.6-13 17.5 0 9.4 5.9 15.3 17.9 18 3 .6 6.6 2.2 8 3.4 2.2 1.9 2.4 2.5 1.3 4.8-1 2.2-1.8 2.6-5.2 2.6-3.5 0-4.3-.4-5.8-3-1.6-2.9-1.9-3-8.9-3h-7.3v18h6c4.6 0 6-.3 6-1.5 0-1.1.8-1.1 4.3.5 15.9 7.3 33.5-6.2 28.8-22-2-6.6-7.5-10-24.4-14.6-2.3-.7-4-4-3.2-6.4 1.2-3.8 8.8-3.8 10 0 .6 1.8 1.5 2 8.1 2h7.4v-16h-6c-3.3 0-6 .4-6 .9 0 .6-1.6.3-3.5-.5-3.4-1.4-11.5-1.8-14.5-.7zM680.7 101c-8.8 2.2-14.6 6.9-18.9 15-1.9 3.8-2.3 6-2.3 14 0 7.9.4 10.2 2.2 13.6 5.6 10.6 13.4 15.4 24.5 15.4 7.2 0 12.3-1.5 14.7-4.3 2-2.5 3.1-2.1 3.1 1.3v3h22v-15h-6v-28h6v-15.1l-10.7.3c-7.7.2-10.8.7-10.9 1.5-.1.7-.2 2-.3 2.8-.1 1.1-1.3.7-4.8-1.5-5.4-3.3-12.6-4.4-18.6-3zm16.4 16.6c3.3 1.6 6.8 8.1 6.9 12.3 0 3.9-3.7 10.5-6.9 12.4-3.9 2.3-10.8 2.2-14.9-.3-7.8-4.8-8.2-17.9-.7-23.8 3.4-2.7 11.1-3 15.6-.6zM218 108.5v7.5h6v28h-7v15.1l14.8-.3 14.7-.3.3-7.2.3-7.2-3.3-.3-3.3-.3-.3-7.8c-.5-12.6 2.3-17 12.1-19.1 2.7-.6 2.7-.8 2.7-8.1v-7.5h-3.2c-3.1 0-10.8 4.4-10.8 6.1 0 .5-.4.9-1 .9-.5 0-1-1.6-1-3.5v-3.5h-21v7.5zM318 111v10h7c6.4 0 7-.2 7-2 0-2.5 1.7-3.2 6.6-2.8l3.8.3-12.7 14-12.7 14v14.5l23.3-.2 23.2-.3.3-9.8.3-9.7h-7.6c-7.3 0-7.5.1-7.5 2.5 0 2.3-.3 2.5-5 2.5-2.7 0-5-.3-5-.8.1-.4 5.5-6.6 12-13.7l12-13v-15.5h-45v10zM448 108.4c0 7 .1 7.5 2.3 7.8 2.4.3 3.4 2.8 11.8 29.5l4.1 13.3h15.7l2.4-8.3c1.4-4.5 3.5-11.7 4.8-16 1.2-4.3 2.5-7.4 2.9-7 .4.4 2.6 7.7 5 16.1l4.3 15.3 8-.3 8-.3 6.6-21c6.4-20.1 6.8-21 9.4-21.3 2.7-.3 2.7-.4 2.7-7.8v-7.4h-26v7.5c0 6.6.2 7.5 1.8 7.5 1 0 2.1.2 2.4.5.5.5-3.2 15.2-4.9 19.5-.7 2-.8 1.8-6.3-18l-4.5-16.5h-13.8l-4.6 17.2c-2.5 9.4-4.9 17.4-5.2 17.8-.6.5-5.9-16.8-5.9-19.3 0-.7.9-1.2 2-1.2 1.8 0 2-.7 2-7.5v-7.5h-25v7.4zM60.7 166.4c-16 5.7-20 27.9-6.7 37.5 2.2 1.6 7.6 4.4 11.8 6.1 9.5 3.9 11.2 5.4 11.2 9.5 0 4-3 6.8-7.1 6.7-3.9-.1-4.7-.8-6.4-5.8l-1.3-3.9-8.1-.3-8.1-.3v12.1c0 7.3.4 12 1 12.1 3.9.4 10.9.1 12.7-.5 1.4-.4 3.4-.1 5.2.8 4.3 2.3 12.2 2 17.6-.5 8-3.8 13.4-12.5 13.5-21.7 0-10.5-6.5-17.9-20.5-23.1-4.6-1.8-8.8-3.8-9.5-4.6-.6-.7-1-2.9-.8-4.7.2-2.5 1-3.6 3.2-4.7 3.6-1.7 6.9-.3 9.1 3.9 1.5 2.9 1.7 3 9 3h7.5v-21.1l-8.2.2c-4.6.1-9.6-.3-11.1-1-3.7-1.5-9.3-1.3-14 .3zM164 173.9v7l3.3.3 3.2.3.3 22.2.2 22.3h-7.8l.2 7.2.1 7.3h23l.5-12.4.5-12.3 9.8 12.6 9.8 12.6h15.9v-15h-3.9c-3.7 0-4.2-.4-9.6-7.5-6.5-8.4-6.6-7.4 1.6-15.8 3.2-3.2 5.5-4.7 7.3-4.7 2.6 0 2.6-.1 2.6-7v-7h-29v6.5c0 6.4.3 7 3.7 6.6 2.9-.4 1.8 2-3.2 6.9l-5.5 5.4v-42.4h-23v6.9zM297 174v7h7v21.6l-5.5 3.3c-5.1 3.1-5.5 3.6-5.5 7.2 0 4.2.5 4.6 3.5 2.6 1.1-.8 3.2-2.2 4.8-3.2l2.7-1.7v15.2h-7v15.1l15.1-.3 15.1-.3.2-7 .1-7-3.5-.5-3.5-.5-.3-11.2-.3-11.1 5.6-3.4c5.1-3 5.5-3.5 5.5-7 0-2.1-.3-3.8-.7-3.8-.5 0-2.6 1.1-4.8 2.5-2.2 1.3-4.3 2.5-4.7 2.5-.5 0-.8-6.1-.8-13.5v-13.5h-23v7zM251 182.9c-14 4.6-21.9 15.1-22 29.1 0 16.8 11.3 28.7 28.4 29.8 16 .9 29.1-9.3 31.4-24.6.9-6 0-13.8-2.3-18.5-2.5-5.3-8.9-11.6-14.3-14-5.1-2.2-16.9-3.2-21.2-1.8zm16.7 18.5c3.4 3.1 3.7 3.8 4.1 10 .4 6.6.4 6.6-3.6 10.6-3.6 3.6-4.5 4-8.9 4-8 0-13.3-5.6-13.3-14 0-8.3 5.3-13.9 13.3-14 4 0 5.3.5 8.4 3.4zM128.8 183.8l-21.8.2v19h7.5c7.3 0 7.5-.1 7.5-2.5 0-2.3.4-2.5 4.5-2.5 2.5 0 4.5.3 4.5.7 0 .5-5.7 7-12.6 14.6l-12.5 13.8.3 6.7.3 6.7 23.3.3 23.2.2v-20h-7c-6.8 0-7 .1-7 2.5s-.3 2.5-5.7 2.5h-5.6l1.9-2.2c1-1.3 6.5-7.3 12.2-13.5l10.2-11.3v-7.4c0-4.1-.3-7.6-.7-7.8-.5-.2-10.6-.2-22.5 0zM351.5 184.6c-5.1 1.9-11.8 8.4-14.7 14.3-3.2 6.6-3.2 19.7 0 26.2 2.6 5.4 8 11.2 12.3 13.4 7.9 4.1 20.4 3.6 26.5-1l3.4-2.6v6.2l11.3-.3 11.2-.3.3-7.2.3-7.2-3.3-.3-3.3-.3v-27l3.3-.3 3.2-.3v-7c0-3.8-.3-6.9-.7-6.9-.5 0-5.3-.1-10.8-.2l-10-.1-.5 3.3c-.5 3.1-.6 3.2-2 1.5-4.2-5.1-17.8-7.1-26.5-3.9zm21.2 15.4c8.2 4.9 8.5 17.7.7 23.9-2 1.5-4.1 2.1-8 2.1-4.5 0-5.9-.5-8.9-3.1-4.3-3.8-6-9.3-4.5-14.8.6-2.4 2.4-5.2 4.5-7 2.9-2.5 4.4-3.1 8.3-3.1 2.9 0 5.9.8 7.9 2zM45 256.5v7.5h7v44h-7v15h32v-15h-6v-14l6-.1c3.3-.1 6.6-.2 7.3-.3.8-.1 1.3-2.7 1.5-8.4l.3-8.2h-15.1v-13h11v8h17v-23h-54v7.5zM112 255.5v6.5h16v-13h-16v6.5zM142.2 256.2l.3 7.3 3.3.3 3.2.3v43.9h-7v15h30v-15h-7v-59h-23.1l.3 7.2zM301.8 265.3c-16.4 4.7-25.3 21.6-20.2 38.7 2.1 7.1 10.7 15.9 17.8 18.3 6.3 2.2 15.9 2.2 22.2 0 7-2.4 15.4-11 17.7-18.2 6.2-19.3-6.4-38.2-26.6-39.6-3.6-.3-8.2.1-10.9.8zm15.4 16.4c6.1 3.6 8.5 12.7 4.9 19.3-2.7 5.1-6 7.2-11.4 7.2-13.4 0-18.4-16.5-7.8-25.5 3.9-3.2 9.7-3.6 14.3-1zM207.4 267.5c-2.3 1.4-4.4 3.2-4.8 4-1 2.7-2.6 1.6-2.6-2v-3.5h-21v15h7v27h-6.8l-.4 6.7c-.3 3.8-.3 7.1-.1 7.5.2.5 6.9.8 14.9.8h14.4v-15h-6v-10.5c0-14.8 2.2-18.3 10.6-17.3 2.2.2 3.4 1.2 4.6 3.8 1.5 2.9 1.8 6.4 1.8 21.2v17.8h23v-15h-8.2l.4-10.9c.2-9.3.6-11.4 2.4-13.8 1.8-2.4 2.8-2.8 7-2.8 7 0 7.4 1 7.4 23.7v18.8h24v-14.9l-3.7-.3-3.8-.3-.5-15.6c-.5-14.8-.6-15.8-3.2-19.6-3.2-4.8-8-7.3-14.3-7.3-5.9 0-10.7 2.3-14.4 6.8l-2.9 3.4-1.7-3.1c-3.7-7.3-15-9.5-23.1-4.6zM456.6 266.5c-5.6 2-10.5 6.3-13.9 12.4-3.9 6.9-4.9 18.1-2.3 25.9 2.2 6.4 8.3 13.4 14.4 16.3 7 3.5 17 3.3 23.6-.4 2.7-1.5 5-2.7 5.2-2.7.2 0 .4 1.1.4 2.5v2.5h22v-15h-6v-27h6v-15h-22v6.4l-2.7-2.5c-1.6-1.4-4.1-3.1-5.6-3.7-3.7-1.6-14.3-1.4-19.1.3zm22.4 17c10.9 10.4 1.1 28.5-13.1 24.5-11.4-3.3-13.5-19.3-3.4-26.1 4.5-3 12.5-2.2 16.5 1.6zM105.2 273.2l.3 7.3 3.3.3 3.2.3v26.9h-7v15h30.5l-.3-7.5-.4-7.5h-6.8v-42h-23.1l.3 7.2zM346.2 273.2c.3 6.7.5 7.3 2.5 7.6 1.9.3 3 2.7 8.2 19 3.2 10.3 6.2 19.7 6.6 21 .6 2.2 1.1 2.3 8.8 2l8.2-.3 4.4-15.8c2.5-8.6 4.8-15.4 5.1-15 .4.5 2.6 7.7 5 16.1l4.3 15.3 8.1-.3 8-.3 6.6-20.7c6-19.3 6.7-20.7 9-21 2.4-.3 2.5-.7 2.8-7.6l.3-7.2h-26.2l.3 7.2c.3 6.6.5 7.3 2.5 7.6l2.1.3-2.6 9.7c-1.4 5.3-2.8 10.1-3.2 10.5-.4.4-2.6-6.3-4.9-15-2.2-8.7-4.4-16.8-4.7-18.1-.6-2.1-1.1-2.3-7.7-2l-7.1.3-4.7 17.5c-2.6 9.6-4.8 17.7-4.9 18-.2.6-4.5-13.4-5.4-17.8-.7-2.8-.5-3.2 1.3-3.2 1.9 0 2.1-.6 2.1-7.5v-7.5h-25.1l.3 7.2z"/></svg>